<svg version="1.1" xmlns="http://www.w3.org/2000/svg" xmlns:xlink="http://www.w3.org/1999/xlink" width="414.4693" height="126.4707" viewBox="0,0,414.4693,126.4707"><defs><linearGradient x1="209.45901" y1="140.97274" x2="281.41386" y2="112.67999" gradientUnits="userSpaceOnUse" id="color-1"><stop offset="0" stop-color="#0080ff"/><stop offset="1" stop-color="#000000" stop-opacity="0"/></linearGradient><linearGradient x1="211.03549" y1="140.6767" x2="277.57533" y2="114.51314" gradientUnits="userSpaceOnUse" id="color-2"><stop offset="0" stop-color="#00b1ff"/><stop offset="1" stop-color="#000000" stop-opacity="0"/></linearGradient><linearGradient x1="212.04252" y1="140.58849" x2="273.22842" y2="116.53011" gradientUnits="userSpaceOnUse" id="color-3"><stop offset="0" stop-color="#00e4ff"/><stop offset="1" stop-color="#000000" stop-opacity="0"/></linearGradient></defs><g transform="translate(-32.76535,-118.26465)"><g data-paper-data="{&quot;isPaintingLayer&quot;:true}" fill-rule="nonzero" stroke-linejoin="miter" stroke-miterlimit="10" stroke-dasharray="" stroke-dashoffset="0" style="mix-blend-mode: normal"><g stroke="none" stroke-width="1" stroke-linecap="butt"><path d="M65.19432,232.7824c-11.19932,-0.20705 -19.4461,-2.5628 -24.74033,-7.06724c-5.29285,-4.57911 -7.85301,-11.53506 -7.68047,-20.86782l0.76815,-41.54947c0.17254,-9.33277 2.98806,-16.18933 8.44655,-20.56967c5.45849,-4.38035 13.7874,-6.46699 24.98672,-6.25994c0,0 13.86536,0.13624 29.47529,1.70834c42.03622,4.23354 69.85108,12.13002 167.67637,13.93858c86.31399,1.59574 178.37976,-8.70423 178.37976,-8.70423c3.21048,0.05935 4.78603,1.69427 4.72667,4.90474c0,0 -0.18406,2.16243 -2.31893,3.32274c-16.53618,8.98747 -92.76334,47.4214 -144.2614,58.80735c-67.73147,14.97507 -235.45839,22.33663 -235.45839,22.33663z" fill="#0080ff"/><path d="M70.91077,227.06883c-10.38649,-0.19202 -18.03719,-2.24359 -22.9521,-6.15467c-4.91371,-3.97582 -7.29578,-10.0092 -7.1462,-18.10014l0.66594,-36.02085c0.14958,-8.09094 2.75303,-14.03215 7.81035,-17.82363c5.05731,-3.79148 12.77921,-5.59121 23.1657,-5.39919c0,0 12.85889,0.13361 27.33731,1.51401c38.98914,3.71729 64.79348,10.59431 155.51873,12.27161c80.04942,1.47993 165.41976,-7.34682 165.41976,-7.34682c2.97747,0.05505 4.44045,1.47422 4.389,4.2575c0,0 -0.16828,1.87453 -2.14686,2.87809c-15.32562,7.77329 -85.97577,41.00875 -133.72236,50.82234c-62.79746,12.90707 -218.33927,19.10176 -218.33927,19.10176z" fill="#00b1ff"/><path d="M73.59413,223.11776c-9.57365,-0.17699 -16.6275,-1.96594 -21.16155,-5.36681c-4.53301,-3.45709 -6.73458,-8.69826 -6.6047,-15.72352l0.57823,-31.27646c0.12988,-7.02526 2.52367,-12.18147 7.18137,-15.46864c4.6577,-3.28717 11.77337,-4.84226 21.34702,-4.66526c0,0 11.85247,0.12871 25.19893,1.34163c35.94087,3.26627 59.73211,9.26311 143.35731,10.80915c73.78485,1.36411 152.46394,-6.21587 152.46394,-6.21587c2.74445,0.05074 4.09432,1.28446 4.04964,3.70115c0,0 -0.15326,1.6275 -1.97597,2.49694c-14.1183,6.73446 -79.20534,35.5232 -123.20477,43.99723c-57.86912,11.14524 -201.22945,16.37048 -201.22945,16.37048z" fill="#00e4ff"/></g><g fill="#000000" stroke="#ffffff" stroke-width="3" stroke-linecap="square"><path d="M87.38238,209.79558h-15.91407c-5.46875,0 -9.51562,-1.07552 -12.14062,-3.22656c-2.625,-2.1875 -3.9375,-5.5599 -3.9375,-10.11719v-20.28906c0,-4.55729 1.3125,-7.92969 3.9375,-10.11719c2.625,-2.1875 6.67188,-3.28125 12.14063,-3.28125h15.91407c1.56771,0 2.35156,0.78385 2.35156,2.35156v7.92969c0,1.56771 -0.78385,2.35156 -2.35156,2.35156h-13.125c-2.66146,0 -3.99219,1.07552 -3.99219,3.22656v15.58594c0,2.07813 1.33073,3.11719 3.99219,3.11719h13.125c1.56771,0 2.35156,0.78385 2.35156,2.35156v7.76563c0,1.56771 -0.78385,2.35156 -2.35156,2.35156zM132.70913,209.79558h-33.25c-1.56771,0 -2.35156,-0.78385 -2.35156,-2.35156v-42.32812c0,-1.56771 0.78385,-2.35156 2.35156,-2.35156h10.11719c1.56771,0 2.35156,0.78385 2.35156,2.35156v32.32031h8.96875v-10.55469c0,-1.56771 0.78385,-2.35156 2.35156,-2.35156h9.46094c1.56771,0 2.35156,0.78385 2.35156,2.35156v20.5625c0,1.56771 -0.78385,2.35156 -2.35156,2.35156zM143.8014,209.79558c-1.56771,0 -2.35156,-0.78385 -2.35156,-2.35156v-7.76562c0,-1.56771 0.78385,-2.35156 2.35156,-2.35156h6.45313v-21.92969h-6.45312c-1.56771,0 -2.35156,-0.78385 -2.35156,-2.35156v-7.92969c0,-1.56771 0.78385,-2.35156 2.35156,-2.35156h27.83594c1.56771,0 2.35156,0.78385 2.35156,2.35156v7.92969c0,1.56771 -0.78385,2.35156 -2.35156,2.35156h-6.34375v21.92969h6.34375c1.56771,0 2.35156,0.78385 2.35156,2.35156v7.76563c0,1.56771 -0.78385,2.35156 -2.35156,2.35156zM213.27477,209.79558h-15.91406c-5.46875,0 -9.51562,-1.07552 -12.14062,-3.22656c-2.625,-2.1875 -3.9375,-5.5599 -3.9375,-10.11719v-20.28906c0,-4.55729 1.3125,-7.92969 3.9375,-10.11719c2.625,-2.1875 6.67188,-3.28125 12.14063,-3.28125h15.91406c1.56771,0 2.35156,0.78385 2.35156,2.35156v7.92969c0,1.56771 -0.78385,2.35156 -2.35156,2.35156h-13.125c-2.66146,0 -3.99219,1.07552 -3.99219,3.22656v15.58594c0,2.07813 1.33073,3.11719 3.99219,3.11719h13.125c1.56771,0 2.35156,0.78385 2.35156,2.35156v7.76563c0,1.56771 -0.78385,2.35156 -2.35156,2.35156zM235.46865,209.79558h-10.11719c-1.56771,0 -2.35156,-0.78385 -2.35156,-2.35156v-42.32812c0,-1.56771 0.78385,-2.35156 2.35156,-2.35156h10.11719c1.56771,0 2.35156,0.78385 2.35156,2.35156v15.03906h2.625l6.72656,-15.20312c0.61979,-1.45834 1.71354,-2.1875 3.28125,-2.1875h10.0625c1.56771,0 2.04167,0.72916 1.42188,2.1875l-6.67187,15.20313c2.44271,0.14584 4.39323,1.02084 5.85157,2.625c1.45833,1.56771 2.1875,3.64584 2.1875,6.23438v18.42969c0,1.56771 -0.78386,2.35156 -2.35157,2.35156h-10.0625c-1.56771,0 -2.35156,-0.78385 -2.35156,-2.35156v-12.74219c0,-1.45834 -0.69271,-2.1875 -2.07813,-2.1875h-8.64062v14.92969c0,1.56771 -0.78385,2.35156 -2.35156,2.35156zM311.74266,197.4362c0,2.00521 -0.29167,3.82813 -0.875,5.46875c-0.58333,1.64063 -1.6224,3.04427 -3.11719,4.21094c-1.49479,1.16666 -3.55469,2.0599 -6.17969,2.67969c-2.625,0.65625 -5.96094,0.98438 -10.00781,0.98438c-4.04687,0 -7.38281,-0.32812 -10.00781,-0.98437c-2.58854,-0.61979 -4.63021,-1.51302 -6.125,-2.67969c-1.49479,-1.16666 -2.55208,-2.57031 -3.17187,-4.21094c-0.58333,-1.64062 -0.875,-3.46354 -0.875,-5.46875v-32.32031c0,-1.56771 0.78385,-2.35156 2.35156,-2.35156h10.28125c1.56771,0 2.35156,0.78385 2.35156,2.35156v29.80469c0,0.875 0.32813,1.60416 0.98438,2.1875c0.65625,0.58334 2.11458,0.875 4.375,0.875c2.29688,0 3.77344,-0.29166 4.42969,-0.875c0.65625,-0.58334 0.98438,-1.3125 0.98438,-2.1875v-29.80469c0,-1.56771 0.78386,-2.35156 2.35156,-2.35156h9.89844c1.56771,0 2.35156,0.78385 2.35156,2.35156zM347.87603,209.79558h-25.10156c-1.56771,0 -2.35156,-0.78385 -2.35156,-2.35156v-42.32812c0,-1.56771 0.78386,-2.35156 2.35156,-2.35156h20.83594c4.26563,0 7.41927,0.82031 9.46094,2.46094c2.07813,1.60416 3.11719,4.11979 3.11719,7.54688v3.11719c0,3.60938 -1.29427,5.96094 -3.88281,7.05469c2.84375,0.25521 4.92188,1.20313 6.23438,2.84375c1.34896,1.64063 2.02344,4.0651 2.02344,7.27344v6.01563c0,3.64584 -1.03906,6.34375 -3.11719,8.09375c-2.04167,1.75 -5.23177,2.625 -9.57031,2.625zM335.13385,190.98308v7.71094h8.47656c1.67708,0 2.51563,-0.875 2.51563,-2.625v-2.51562c0,-1.71354 -0.83854,-2.57031 -2.51562,-2.57031zM335.13385,173.86589v7.05469h5.57813c1.64063,0 2.46094,-0.875 2.46094,-2.625v-1.80469c0,-1.75 -0.82031,-2.625 -2.46094,-2.625zM380.23191,209.79558h-10.11719c-1.56771,0 -2.35156,-0.78385 -2.35156,-2.35156v-42.32812c0,-1.56771 0.78386,-2.35156 2.35156,-2.35156h10.11719c1.56771,0 2.35156,0.78385 2.35156,2.35156v15.03906h2.625l6.72656,-15.20312c0.61979,-1.45834 1.71354,-2.1875 3.28125,-2.1875h10.0625c1.56771,0 2.04167,0.72916 1.42188,2.1875l-6.67187,15.20313c2.44271,0.14584 4.39323,1.02084 5.85156,2.625c1.45833,1.56771 2.1875,3.64584 2.1875,6.23438v18.42969c0,1.56771 -0.78386,2.35156 -2.35156,2.35156h-10.0625c-1.56771,0 -2.35156,-0.78385 -2.35156,-2.35156v-12.74219c0,-1.45834 -0.69271,-2.1875 -2.07812,-2.1875h-8.64062v14.92969c0,1.56771 -0.78386,2.35156 -2.35156,2.35156z"/><path d="M86.00176,242.83692h-4.09505c-0.63455,0 -0.95182,-0.31727 -0.95182,-0.95182v-17.13281c0,-0.63455 0.31727,-0.95183 0.95182,-0.95183h4.09505c0.63455,0 0.95182,0.31728 0.95182,0.95183v5.73307h4.42708v-5.73307c0,-0.63455 0.31727,-0.95183 0.95182,-0.95183h4.09505c0.63455,0 0.95182,0.31728 0.95182,0.95183v17.13281c0,0.63455 -0.31727,0.95182 -0.95182,0.95182h-4.09505c-0.63455,0 -0.95182,-0.31727 -0.95182,-0.95182v-5.86589h-4.42708v5.86589c0,0.63455 -0.31727,0.95182 -0.95182,0.95182zM117.15174,237.83431c0,0.81163 -0.12543,1.54948 -0.37631,2.21354c-0.23611,0.66406 -0.65668,1.23221 -1.26171,1.70443c-0.59028,0.47222 -1.41667,0.83376 -2.47917,1.08463c-1.0625,0.26563 -2.42014,0.39844 -4.07292,0.39844c-1.66754,0 -3.03256,-0.13281 -4.09506,-0.39844c-1.0625,-0.25087 -1.89626,-0.61241 -2.5013,-1.08463c-0.59028,-0.47222 -1.01085,-1.04036 -1.26172,-1.70443c-0.25087,-0.66406 -0.3763,-1.40191 -0.3763,-2.21354v-9.00912c0,-0.81163 0.12543,-1.5421 0.3763,-2.19141c0.25087,-0.66406 0.67144,-1.2322 1.26172,-1.70442c0.60504,-0.48698 1.4388,-0.86329 2.5013,-1.12891c1.0625,-0.26562 2.42752,-0.39844 4.09506,-0.39844c1.65278,0 3.01042,0.13281 4.07292,0.39844c1.0625,0.26563 1.88889,0.64193 2.47917,1.12891c0.60504,0.47222 1.0256,1.04036 1.26171,1.70442c0.25087,0.6493 0.37631,1.37977 0.37631,2.19141zM106.72596,236.88249c0,0.35416 0.13282,0.6493 0.39844,0.88541c0.26563,0.23611 0.87804,0.35416 1.83724,0.35416c0.9592,0 1.56423,-0.11805 1.81511,-0.35416c0.26563,-0.23611 0.39844,-0.53125 0.39844,-0.88541v-7.10547c0,-0.35416 -0.13281,-0.64192 -0.39844,-0.86328c-0.25087,-0.23611 -0.85591,-0.35417 -1.81511,-0.35417c-0.9592,0 -1.57161,0.11806 -1.83724,0.35417c-0.26562,0.22135 -0.39844,0.50911 -0.39844,0.86328zM129.32574,242.83692h-8.34505c-0.63455,0 -0.95182,-0.31727 -0.95182,-0.95182v-3.09896c0,-0.63455 0.31727,-0.95182 0.95182,-0.95182h7.10547c0.23611,0 0.40582,-0.07379 0.50912,-0.22136c0.11805,-0.14757 0.17708,-0.32466 0.17708,-0.53125c0,-0.3099 -0.05903,-0.53125 -0.17708,-0.66406c-0.1033,-0.14757 -0.27301,-0.22873 -0.50912,-0.24349l-3.96224,-0.55339c-1.23959,-0.19184 -2.23568,-0.59766 -2.98828,-1.21745c-0.73784,-0.63455 -1.10677,-1.68967 -1.10677,-3.16537v-2.78906c0,-1.50521 0.4796,-2.65625 1.43881,-3.45312c0.97396,-0.79687 2.31684,-1.19531 4.02864,-1.19531h7.39323c0.63455,0 0.95182,0.31728 0.95182,0.95183v3.14323c0,0.63455 -0.31727,0.95182 -0.95182,0.95182h-6.15365c-0.47222,0 -0.70834,0.26563 -0.70834,0.79688c0,0.51649 0.23612,0.79688 0.70834,0.84115l3.9401,0.53125c0.82639,0.13281 1.54949,0.35416 2.16927,0.66406c0.61979,0.29514 1.09939,0.74523 1.4388,1.35026c0.33941,0.60503 0.50911,1.39453 0.50911,2.36849v2.78906c0,1.49045 -0.48698,2.64149 -1.46094,3.45313c-0.9592,0.79688 -2.2947,1.19531 -4.00651,1.19531zM146.39557,242.83692h-4.27214c-0.63455,0 -0.95182,-0.31727 -0.95182,-0.95182v-12.97135h-3.89584c-0.63455,0 -0.95182,-0.31728 -0.95182,-0.95183v-3.20963c0,-0.63455 0.31727,-0.95183 0.95182,-0.95183h13.96745c0.63455,0 0.95183,0.31728 0.95183,0.95183v3.20963c0,0.63455 -0.31728,0.95183 -0.95183,0.95183h-3.89583v12.97135c0,0.63455 -0.31727,0.95182 -0.95182,0.95182zM167.9613,242.83692h-12.26302c-0.63455,0 -0.95183,-0.31727 -0.95183,-0.95182v-17.13281c0,-0.63455 0.31728,-0.95183 0.95183,-0.95183h12.26302c0.63455,0 0.95183,0.31728 0.95183,0.95183v3.09896c0,0.63455 -0.31728,0.95182 -0.95183,0.95182h-7.28255v2.03646h5.15755c0.63455,0 0.95183,0.31727 0.95183,0.95182v2.83333c0,0.63455 -0.31728,0.95183 -0.95183,0.95183h-5.15755v2.25781h7.28255c0.63455,0 0.95183,0.31727 0.95183,0.95182v3.09896c0,0.63455 -0.31728,0.95182 -0.95183,0.95182zM181.90389,242.83692h-8.92058c-0.63455,0 -0.95182,-0.31727 -0.95182,-0.95182v-17.13281c0,-0.63455 0.31727,-0.95183 0.95182,-0.95183h8.92058c2.21354,0 3.84418,0.44271 4.89192,1.32813c1.0625,0.88541 1.59375,2.24306 1.59375,4.07292v8.23438c0,1.84462 -0.53125,3.20963 -1.59375,4.09505c-1.04774,0.87066 -2.67838,1.30599 -4.89192,1.30599zM178.03019,228.84733v8.98698h3.16537c0.82639,0 1.23959,-0.42795 1.23959,-1.28386v-6.41927c0,-0.85591 -0.4132,-1.28386 -1.23959,-1.28386zM213.83146,237.83431c0,0.81163 -0.12543,1.54948 -0.3763,2.21354c-0.23611,0.66406 -0.65669,1.23221 -1.26172,1.70443c-0.59028,0.47222 -1.41666,0.83376 -2.47916,1.08463c-1.0625,0.26563 -2.42014,0.39844 -4.07292,0.39844c-1.66753,0 -3.03255,-0.13281 -4.09505,-0.39844c-1.0625,-0.25087 -1.89627,-0.61241 -2.50131,-1.08463c-0.59028,-0.47222 -1.01085,-1.04036 -1.26172,-1.70443c-0.25087,-0.66406 -0.37631,-1.40191 -0.37631,-2.21354v-9.00912c0,-0.81163 0.12544,-1.5421 0.37631,-2.19141c0.25087,-0.66406 0.67144,-1.2322 1.26172,-1.70442c0.60503,-0.48698 1.43881,-0.86329 2.50131,-1.12891c1.0625,-0.26562 2.42751,-0.39844 4.09505,-0.39844c1.65278,0 3.01042,0.13281 4.07292,0.39844c1.0625,0.26563 1.88888,0.64193 2.47916,1.12891c0.60503,0.47222 1.02561,1.04036 1.26172,1.70442c0.25087,0.6493 0.3763,1.37977 0.3763,2.19141zM203.40568,236.88249c0,0.35416 0.13281,0.6493 0.39843,0.88541c0.26563,0.23611 0.87804,0.35416 1.83724,0.35416c0.9592,0 1.56424,-0.11805 1.81511,-0.35416c0.26563,-0.23611 0.39844,-0.53125 0.39844,-0.88541v-7.10547c0,-0.35416 -0.13281,-0.64192 -0.39844,-0.86328c-0.25087,-0.23611 -0.85591,-0.35417 -1.81511,-0.35417c-0.9592,0 -1.57162,0.11806 -1.83724,0.35417c-0.26562,0.22135 -0.39843,0.50911 -0.39843,0.86328zM222.08749,242.83692h-3.96224c-0.63455,0 -0.95183,-0.31727 -0.95183,-0.95182v-17.13281c0,-0.63455 0.31728,-0.95183 0.95183,-0.95183h2.76692c0.63455,0 1.15105,0.24349 1.54948,0.73047l5.13542,5.86589v-5.64453c0,-0.63455 0.31727,-0.95183 0.95182,-0.95183h3.96224c0.63455,0 0.95183,0.31728 0.95183,0.95183v17.13281c0,0.63455 -0.31728,0.95182 -0.95183,0.95182h-3.96224c-0.63455,0 -0.95182,-0.31727 -0.95182,-0.95182v-3.25391l-4.53776,-5.46744v8.72135c0,0.63455 -0.31727,0.95182 -0.95182,0.95182zM251.74419,242.83692h-4.27214c-0.63455,0 -0.95182,-0.31727 -0.95182,-0.95182v-12.97135h-3.89584c-0.63455,0 -0.95182,-0.31728 -0.95182,-0.95183v-3.20963c0,-0.63455 0.31727,-0.95183 0.95182,-0.95183h13.96745c0.63455,0 0.95182,0.31728 0.95182,0.95183v3.20963c0,0.63455 -0.31727,0.95183 -0.95182,0.95183h-3.89583v12.97135c0,0.63455 -0.31727,0.95182 -0.95182,0.95182zM265.142,242.83692h-4.09506c-0.63455,0 -0.95182,-0.31727 -0.95182,-0.95182v-17.13281c0,-0.63455 0.31727,-0.95183 0.95182,-0.95183h4.09506c0.63455,0 0.95182,0.31728 0.95182,0.95183v5.73307h4.42708v-5.73307c0,-0.63455 0.31728,-0.95183 0.95183,-0.95183h4.09505c0.63455,0 0.95183,0.31728 0.95183,0.95183v17.13281c0,0.63455 -0.31728,0.95182 -0.95183,0.95182h-4.09505c-0.63455,0 -0.95183,-0.31727 -0.95183,-0.95182v-5.86589h-4.42708v5.86589c0,0.63455 -0.31727,0.95182 -0.95182,0.95182zM293.3701,242.83692h-12.26302c-0.63455,0 -0.95182,-0.31727 -0.95182,-0.95182v-17.13281c0,-0.63455 0.31727,-0.95183 0.95182,-0.95183h12.26302c0.63455,0 0.95182,0.31728 0.95182,0.95183v3.09896c0,0.63455 -0.31727,0.95182 -0.95182,0.95182h-7.28255v2.03646h5.15755c0.63455,0 0.95182,0.31727 0.95182,0.95182v2.83333c0,0.63455 -0.31727,0.95183 -0.95182,0.95183h-5.15755v2.25781h7.28255c0.63455,0 0.95182,0.31727 0.95182,0.95182v3.09896c0,0.63455 -0.31727,0.95182 -0.95182,0.95182zM308.43382,242.83692h-4.09505c-0.63455,0 -0.95182,-0.31727 -0.95182,-0.95182v-17.13281c0,-0.63455 0.31727,-0.95183 0.95182,-0.95183h4.09505c0.63455,0 0.95182,0.31728 0.95182,0.95183v5.73307h4.42708v-5.73307c0,-0.63455 0.31727,-0.95183 0.95182,-0.95183h4.09505c0.63455,0 0.95182,0.31728 0.95182,0.95183v17.13281c0,0.63455 -0.31727,0.95182 -0.95182,0.95182h-4.09505c-0.63455,0 -0.95182,-0.31727 -0.95182,-0.95182v-5.86589h-4.42708v5.86589c0,0.63455 -0.31727,0.95182 -0.95182,0.95182zM332.43406,242.83692h-4.27213c-0.63455,0 -0.95183,-0.31727 -0.95183,-0.95182v-12.97135h-3.89583c-0.63455,0 -0.95182,-0.31728 -0.95182,-0.95183v-3.20963c0,-0.63455 0.31727,-0.95183 0.95182,-0.95183h13.96745c0.63455,0 0.95183,0.31728 0.95183,0.95183v3.20963c0,0.63455 -0.31728,0.95183 -0.95183,0.95183h-3.89583v12.97135c0,0.63455 -0.31727,0.95182 -0.95182,0.95182zM349.77197,242.83692h-4.27213c-0.63455,0 -0.95182,-0.31727 -0.95182,-0.95182v-12.97135h-3.89583c-0.63455,0 -0.95182,-0.31728 -0.95182,-0.95183v-3.20963c0,-0.63455 0.31727,-0.95183 0.95182,-0.95183h13.96745c0.63455,0 0.95182,0.31728 0.95182,0.95183v3.20963c0,0.63455 -0.31727,0.95183 -0.95182,0.95183h-3.89584v12.97135c0,0.63455 -0.31727,0.95182 -0.95182,0.95182zM363.16973,242.83692h-4.09506c-0.63455,0 -0.95182,-0.31727 -0.95182,-0.95182v-17.13281c0,-0.63455 0.31727,-0.95183 0.95182,-0.95183h8.10156c1.59375,0 2.84071,0.22135 3.74088,0.66406c0.91493,0.42795 1.55685,1.03299 1.92578,1.81511c0.38368,0.76736 0.57552,1.66016 0.57552,2.67838v3.38672c0,1.01823 -0.19184,1.9184 -0.57552,2.70052c-0.36892,0.76736 -1.01085,1.37239 -1.92578,1.8151c-0.90017,0.42795 -2.14713,0.64193 -3.74088,0.64193h-3.05469v4.38281c0,0.63455 -0.31727,0.95182 -0.95182,0.95182zM364.07728,228.75879v3.98438h2.36849c0.5165,0 0.85591,-0.13281 1.01823,-0.39844c0.16233,-0.26562 0.24349,-0.56815 0.24349,-0.90756v-1.39453c0,-0.35416 -0.08116,-0.65668 -0.24349,-0.90755c-0.16233,-0.25087 -0.50173,-0.3763 -1.01823,-0.3763zM381.55133,242.83692h-5.33463c-0.63455,0 -0.95182,-0.31727 -0.95182,-0.95182v-5.35677c0,-0.63455 0.31727,-0.95182 0.95182,-0.95182h5.33463c0.63455,0 0.95182,0.31727 0.95182,0.95182v5.35677c0,0.63455 -0.31727,0.95182 -0.95182,0.95182z"/></g><path d="M87.38238,209.79557h-15.91406c-5.46875,0 -9.51562,-1.07552 -12.14062,-3.22656c-2.625,-2.1875 -3.9375,-5.5599 -3.9375,-10.11719v-20.28906c0,-4.55729 1.3125,-7.92969 3.9375,-10.11719c2.625,-2.1875 6.67188,-3.28125 12.14063,-3.28125h15.91406c1.56771,0 2.35156,0.78386 2.35156,2.35156v7.92969c0,1.56771 -0.78385,2.35156 -2.35156,2.35156h-13.125c-2.66146,0 -3.99219,1.07552 -3.99219,3.22656v15.58594c0,2.07813 1.33073,3.11719 3.99219,3.11719h13.125c1.56771,0 2.35156,0.78386 2.35156,2.35156v7.76563c0,1.56771 -0.78385,2.35156 -2.35156,2.35156zM132.70913,209.79557h-33.25c-1.56771,0 -2.35156,-0.78385 -2.35156,-2.35156v-42.32812c0,-1.56771 0.78385,-2.35156 2.35156,-2.35156h10.11719c1.56771,0 2.35156,0.78386 2.35156,2.35156v32.32031h8.96875v-10.55469c0,-1.56771 0.78386,-2.35156 2.35156,-2.35156h9.46094c1.56771,0 2.35157,0.78386 2.35157,2.35156v20.5625c0,1.56771 -0.78386,2.35156 -2.35157,2.35156zM143.8014,209.79557c-1.56771,0 -2.35156,-0.78385 -2.35156,-2.35156v-7.76562c0,-1.56771 0.78385,-2.35156 2.35156,-2.35156h6.45313v-21.92969h-6.45312c-1.56771,0 -2.35156,-0.78385 -2.35156,-2.35156v-7.92969c0,-1.56771 0.78385,-2.35156 2.35156,-2.35156h27.83594c1.56771,0 2.35156,0.78386 2.35156,2.35156v7.92969c0,1.56771 -0.78385,2.35156 -2.35156,2.35156h-6.34375v21.92969h6.34375c1.56771,0 2.35156,0.78386 2.35156,2.35156v7.76563c0,1.56771 -0.78385,2.35156 -2.35156,2.35156zM213.27477,209.79557h-15.91406c-5.46875,0 -9.51562,-1.07552 -12.14062,-3.22656c-2.625,-2.1875 -3.9375,-5.5599 -3.9375,-10.11719v-20.28906c0,-4.55729 1.3125,-7.92969 3.9375,-10.11719c2.625,-2.1875 6.67188,-3.28125 12.14063,-3.28125h15.91406c1.56771,0 2.35156,0.78386 2.35156,2.35156v7.92969c0,1.56771 -0.78385,2.35156 -2.35156,2.35156h-13.125c-2.66146,0 -3.99219,1.07552 -3.99219,3.22656v15.58594c0,2.07813 1.33073,3.11719 3.99219,3.11719h13.125c1.56771,0 2.35156,0.78386 2.35156,2.35156v7.76563c0,1.56771 -0.78385,2.35156 -2.35156,2.35156zM235.46865,209.79557h-10.11719c-1.56771,0 -2.35156,-0.78385 -2.35156,-2.35156v-42.32812c0,-1.56771 0.78385,-2.35156 2.35156,-2.35156h10.11719c1.56771,0 2.35156,0.78386 2.35156,2.35156v15.03906h2.625l6.72656,-15.20312c0.61979,-1.45833 1.71354,-2.1875 3.28125,-2.1875h10.0625c1.56771,0 2.04166,0.72917 1.42188,2.1875l-6.67187,15.20313c2.44271,0.14584 4.39323,1.02084 5.85156,2.625c1.45834,1.56771 2.1875,3.64584 2.1875,6.23438v18.42969c0,1.56771 -0.78385,2.35156 -2.35156,2.35156h-10.0625c-1.56771,0 -2.35156,-0.78385 -2.35156,-2.35156v-12.74219c0,-1.45833 -0.69271,-2.1875 -2.07812,-2.1875h-8.64063v14.92969c0,1.56771 -0.78385,2.35156 -2.35156,2.35156zM311.74266,197.4362c0,2.00521 -0.29166,3.82813 -0.875,5.46875c-0.58333,1.64063 -1.6224,3.04428 -3.11719,4.21094c-1.49479,1.16667 -3.55469,2.0599 -6.17969,2.67969c-2.625,0.65625 -5.96094,0.98438 -10.00781,0.98438c-4.04687,0 -7.38281,-0.32812 -10.00781,-0.98437c-2.58854,-0.61979 -4.63021,-1.51302 -6.125,-2.67969c-1.49479,-1.16666 -2.55209,-2.57031 -3.17187,-4.21094c-0.58334,-1.64062 -0.875,-3.46354 -0.875,-5.46875v-32.32031c0,-1.56771 0.78385,-2.35156 2.35156,-2.35156h10.28125c1.56771,0 2.35156,0.78386 2.35156,2.35156v29.80469c0,0.875 0.32813,1.60417 0.98438,2.1875c0.65625,0.58334 2.11459,0.875 4.375,0.875c2.29688,0 3.77344,-0.29166 4.42969,-0.875c0.65625,-0.58333 0.98438,-1.3125 0.98438,-2.1875v-29.80469c0,-1.56771 0.78386,-2.35156 2.35156,-2.35156h9.89844c1.56771,0 2.35156,0.78386 2.35156,2.35156zM347.87603,209.79557h-25.10156c-1.56771,0 -2.35157,-0.78385 -2.35157,-2.35156v-42.32812c0,-1.56771 0.78386,-2.35156 2.35157,-2.35156h20.83593c4.26563,0 7.41927,0.82031 9.46094,2.46094c2.07813,1.60417 3.11718,4.11979 3.11718,7.54688v3.11719c0,3.60938 -1.29427,5.96094 -3.88281,7.05469c2.84375,0.25521 4.92188,1.20313 6.23438,2.84375c1.34896,1.64063 2.02343,4.0651 2.02343,7.27344v6.01563c0,3.64584 -1.03906,6.34375 -3.11718,8.09375c-2.04167,1.75 -5.23177,2.625 -9.57032,2.625zM335.13385,190.98307v7.71094h8.47656c1.67709,0 2.51563,-0.875 2.51563,-2.625v-2.51562c0,-1.71354 -0.83854,-2.57031 -2.51562,-2.57031zM335.13385,173.86589v7.05469h5.57813c1.64063,0 2.46093,-0.875 2.46093,-2.625v-1.80469c0,-1.75 -0.82031,-2.625 -2.46093,-2.625zM380.23191,209.79557h-10.11718c-1.56771,0 -2.35157,-0.78385 -2.35157,-2.35156v-42.32812c0,-1.56771 0.78386,-2.35156 2.35157,-2.35156h10.11718c1.56771,0 2.35157,0.78386 2.35157,2.35156v15.03906h2.625l6.72656,-15.20312c0.61979,-1.45833 1.71354,-2.1875 3.28125,-2.1875h10.0625c1.56771,0 2.04167,0.72917 1.42188,2.1875l-6.67187,15.20313c2.44271,0.14584 4.39323,1.02084 5.85157,2.625c1.45833,1.56771 2.1875,3.64584 2.1875,6.23438v18.42969c0,1.56771 -0.78386,2.35156 -2.35157,2.35156h-10.0625c-1.56771,0 -2.35156,-0.78385 -2.35156,-2.35156v-12.74219c0,-1.45833 -0.69271,-2.1875 -2.07812,-2.1875h-8.64062v14.92969c0,1.56771 -0.78386,2.35156 -2.35157,2.35156z" fill="#000000" stroke="#000000" stroke-width="0" stroke-linecap="square"/><path d="M86.00176,242.83692h-4.09505c-0.63455,0 -0.95182,-0.31727 -0.95182,-0.95183v-17.13281c0,-0.63455 0.31727,-0.95183 0.95182,-0.95183h4.09505c0.63455,0 0.95182,0.31727 0.95182,0.95183v5.73308h4.42708v-5.73308c0,-0.63455 0.31727,-0.95183 0.95182,-0.95183h4.09505c0.63455,0 0.95182,0.31727 0.95182,0.95183v17.13281c0,0.63455 -0.31727,0.95183 -0.95182,0.95183h-4.09505c-0.63455,0 -0.95182,-0.31727 -0.95182,-0.95183v-5.86588h-4.42708v5.86588c0,0.63455 -0.31728,0.95183 -0.95182,0.95183zM117.15174,237.83431c0,0.81163 -0.12544,1.54949 -0.37631,2.21355c-0.23611,0.66406 -0.65668,1.2322 -1.26172,1.70442c-0.59028,0.47222 -1.41667,0.83376 -2.47917,1.08463c-1.0625,0.26563 -2.42014,0.39844 -4.07292,0.39844c-1.66754,0 -3.03256,-0.13282 -4.09506,-0.39844c-1.0625,-0.25087 -1.89626,-0.61241 -2.5013,-1.08463c-0.59028,-0.47222 -1.01085,-1.04036 -1.26172,-1.70442c-0.25087,-0.66406 -0.3763,-1.40192 -0.3763,-2.21355v-9.00912c0,-0.81163 0.12543,-1.5421 0.3763,-2.19141c0.25087,-0.66406 0.67144,-1.2322 1.26172,-1.70442c0.60504,-0.48698 1.4388,-0.86329 2.5013,-1.12891c1.0625,-0.26562 2.42752,-0.39844 4.09506,-0.39844c1.65278,0 3.01042,0.13281 4.07292,0.39844c1.0625,0.26563 1.88889,0.64193 2.47917,1.12891c0.60504,0.47222 1.02561,1.04036 1.26172,1.70442c0.25087,0.6493 0.37631,1.37978 0.37631,2.19141zM106.72596,236.88249c0,0.35416 0.13282,0.6493 0.39844,0.88541c0.26563,0.23611 0.87804,0.35416 1.83724,0.35416c0.9592,0 1.56423,-0.11805 1.81511,-0.35416c0.26563,-0.23611 0.39844,-0.53125 0.39844,-0.88541v-7.10547c0,-0.35416 -0.13281,-0.64192 -0.39844,-0.86328c-0.25087,-0.23611 -0.85591,-0.35417 -1.81511,-0.35417c-0.9592,0 -1.57161,0.11806 -1.83724,0.35417c-0.26562,0.22135 -0.39844,0.50912 -0.39844,0.86328zM129.32574,242.83692h-8.34505c-0.63455,0 -0.95183,-0.31727 -0.95183,-0.95183v-3.09895c0,-0.63455 0.31727,-0.95182 0.95183,-0.95182h7.10547c0.23611,0 0.40581,-0.07379 0.50911,-0.22136c0.11805,-0.14757 0.17708,-0.32466 0.17708,-0.53125c0,-0.30989 -0.05903,-0.53125 -0.17708,-0.66406c-0.1033,-0.14757 -0.273,-0.22873 -0.50911,-0.24349l-3.96224,-0.55339c-1.23959,-0.19184 -2.23567,-0.59766 -2.98828,-1.21745c-0.73784,-0.63455 -1.10677,-1.68967 -1.10677,-3.16537v-2.78906c0,-1.50521 0.47961,-2.65625 1.43881,-3.45312c0.97396,-0.79687 2.31684,-1.19531 4.02864,-1.19531h7.39323c0.63455,0 0.95182,0.31727 0.95182,0.95183v3.14323c0,0.63455 -0.31727,0.95182 -0.95182,0.95182h-6.15365c-0.47222,0 -0.70834,0.26563 -0.70834,0.79688c0,0.5165 0.23612,0.79688 0.70834,0.84115l3.9401,0.53125c0.82639,0.13281 1.54949,0.35416 2.16927,0.66406c0.61979,0.29514 1.09939,0.74523 1.4388,1.35026c0.33941,0.60503 0.50912,1.39453 0.50912,2.36849v2.78907c0,1.49045 -0.48698,2.64149 -1.46094,3.45313c-0.9592,0.79688 -2.2947,1.19531 -4.00651,1.19531zM146.39557,242.83692h-4.27213c-0.63455,0 -0.95182,-0.31727 -0.95182,-0.95183v-12.97135h-3.89584c-0.63455,0 -0.95182,-0.31727 -0.95182,-0.95183v-3.20963c0,-0.63455 0.31727,-0.95183 0.95182,-0.95183h13.96745c0.63455,0 0.95182,0.31727 0.95182,0.95183v3.20963c0,0.63455 -0.31727,0.95183 -0.95182,0.95183h-3.89584v12.97135c0,0.63455 -0.31727,0.95183 -0.95182,0.95183zM167.9613,242.83692h-12.26302c-0.63455,0 -0.95183,-0.31727 -0.95183,-0.95183v-17.13281c0,-0.63455 0.31728,-0.95183 0.95183,-0.95183h12.26302c0.63455,0 0.95183,0.31727 0.95183,0.95183v3.09896c0,0.63455 -0.31728,0.95182 -0.95183,0.95182h-7.28255v2.03646h5.15755c0.63455,0 0.95183,0.31727 0.95183,0.95182v2.83334c0,0.63455 -0.31728,0.95182 -0.95183,0.95182h-5.15755v2.25781h7.28255c0.63455,0 0.95183,0.31727 0.95183,0.95182v3.09895c0,0.63455 -0.31728,0.95183 -0.95183,0.95183zM181.90389,242.83692h-8.92058c-0.63455,0 -0.95182,-0.31727 -0.95182,-0.95183v-17.13281c0,-0.63455 0.31727,-0.95183 0.95182,-0.95183h8.92058c2.21354,0 3.84418,0.44271 4.89192,1.32813c1.0625,0.88541 1.59375,2.24306 1.59375,4.07292v8.23438c0,1.84462 -0.53125,3.20963 -1.59375,4.09505c-1.04774,0.87066 -2.67838,1.30599 -4.89192,1.30599zM178.03019,228.84733v8.98698h3.16537c0.82639,0 1.23959,-0.42795 1.23959,-1.28386v-6.41927c0,-0.85591 -0.4132,-1.28386 -1.23959,-1.28386zM213.83146,237.83431c0,0.81163 -0.12543,1.54949 -0.3763,2.21355c-0.23611,0.66406 -0.65669,1.2322 -1.26172,1.70442c-0.59028,0.47222 -1.41666,0.83376 -2.47916,1.08463c-1.0625,0.26563 -2.42014,0.39844 -4.07292,0.39844c-1.66753,0 -3.03255,-0.13282 -4.09505,-0.39844c-1.0625,-0.25087 -1.89627,-0.61241 -2.50131,-1.08463c-0.59028,-0.47222 -1.01085,-1.04036 -1.26172,-1.70442c-0.25087,-0.66406 -0.37631,-1.40192 -0.37631,-2.21355v-9.00912c0,-0.81163 0.12544,-1.5421 0.37631,-2.19141c0.25087,-0.66406 0.67144,-1.2322 1.26172,-1.70442c0.60503,-0.48698 1.43881,-0.86329 2.50131,-1.12891c1.0625,-0.26562 2.42751,-0.39844 4.09505,-0.39844c1.65278,0 3.01042,0.13281 4.07292,0.39844c1.0625,0.26563 1.88888,0.64193 2.47916,1.12891c0.60503,0.47222 1.02561,1.04036 1.26172,1.70442c0.25087,0.6493 0.3763,1.37978 0.3763,2.19141zM203.40568,236.88249c0,0.35416 0.13281,0.6493 0.39843,0.88541c0.26563,0.23611 0.87804,0.35416 1.83724,0.35416c0.9592,0 1.56424,-0.11805 1.81511,-0.35416c0.26563,-0.23611 0.39844,-0.53125 0.39844,-0.88541v-7.10547c0,-0.35416 -0.13281,-0.64192 -0.39844,-0.86328c-0.25087,-0.23611 -0.85591,-0.35417 -1.81511,-0.35417c-0.9592,0 -1.57162,0.11806 -1.83724,0.35417c-0.26562,0.22135 -0.39843,0.50912 -0.39843,0.86328zM222.08749,242.83692h-3.96224c-0.63455,0 -0.95183,-0.31727 -0.95183,-0.95183v-17.13281c0,-0.63455 0.31728,-0.95183 0.95183,-0.95183h2.76692c0.63455,0 1.15105,0.24349 1.54948,0.73047l5.13542,5.86588v-5.64453c0,-0.63455 0.31727,-0.95183 0.95182,-0.95183h3.96224c0.63455,0 0.95183,0.31727 0.95183,0.95183v17.13281c0,0.63455 -0.31728,0.95183 -0.95183,0.95183h-3.96224c-0.63455,0 -0.95182,-0.31727 -0.95182,-0.95183v-3.2539l-4.53776,-5.46744v8.72135c0,0.63455 -0.31727,0.95183 -0.95182,0.95183zM251.74419,242.83692h-4.27214c-0.63455,0 -0.95182,-0.31727 -0.95182,-0.95183v-12.97135h-3.89583c-0.63455,0 -0.95182,-0.31727 -0.95182,-0.95183v-3.20963c0,-0.63455 0.31727,-0.95183 0.95182,-0.95183h13.96745c0.63455,0 0.95182,0.31727 0.95182,0.95183v3.20963c0,0.63455 -0.31727,0.95183 -0.95182,0.95183h-3.89584v12.97135c0,0.63455 -0.31727,0.95183 -0.95182,0.95183zM265.142,242.83692h-4.09506c-0.63455,0 -0.95182,-0.31727 -0.95182,-0.95183v-17.13281c0,-0.63455 0.31727,-0.95183 0.95182,-0.95183h4.09506c0.63455,0 0.95182,0.31727 0.95182,0.95183v5.73308h4.42708v-5.73308c0,-0.63455 0.31727,-0.95183 0.95182,-0.95183h4.09505c0.63455,0 0.95182,0.31727 0.95182,0.95183v17.13281c0,0.63455 -0.31727,0.95183 -0.95182,0.95183h-4.09505c-0.63455,0 -0.95182,-0.31727 -0.95182,-0.95183v-5.86588h-4.42708v5.86588c0,0.63455 -0.31727,0.95183 -0.95182,0.95183zM293.3701,242.83692h-12.26302c-0.63455,0 -0.95182,-0.31727 -0.95182,-0.95183v-17.13281c0,-0.63455 0.31727,-0.95183 0.95182,-0.95183h12.26302c0.63455,0 0.95182,0.31727 0.95182,0.95183v3.09896c0,0.63455 -0.31727,0.95182 -0.95182,0.95182h-7.28255v2.03646h5.15755c0.63455,0 0.95182,0.31727 0.95182,0.95182v2.83334c0,0.63455 -0.31727,0.95182 -0.95182,0.95182h-5.15755v2.25781h7.28255c0.63455,0 0.95182,0.31727 0.95182,0.95182v3.09895c0,0.63455 -0.31727,0.95183 -0.95182,0.95183zM308.43382,242.83692h-4.09505c-0.63455,0 -0.95182,-0.31727 -0.95182,-0.95183v-17.13281c0,-0.63455 0.31727,-0.95183 0.95182,-0.95183h4.09505c0.63455,0 0.95182,0.31727 0.95182,0.95183v5.73308h4.42708v-5.73308c0,-0.63455 0.31727,-0.95183 0.95182,-0.95183h4.09505c0.63455,0 0.95182,0.31727 0.95182,0.95183v17.13281c0,0.63455 -0.31727,0.95183 -0.95182,0.95183h-4.09505c-0.63455,0 -0.95182,-0.31727 -0.95182,-0.95183v-5.86588h-4.42708v5.86588c0,0.63455 -0.31727,0.95183 -0.95182,0.95183zM332.43406,242.83692h-4.27214c-0.63455,0 -0.95182,-0.31727 -0.95182,-0.95183v-12.97135h-3.89584c-0.63455,0 -0.95182,-0.31727 -0.95182,-0.95183v-3.20963c0,-0.63455 0.31727,-0.95183 0.95182,-0.95183h13.96745c0.63455,0 0.95183,0.31727 0.95183,0.95183v3.20963c0,0.63455 -0.31728,0.95183 -0.95183,0.95183h-3.89583v12.97135c0,0.63455 -0.31727,0.95183 -0.95182,0.95183zM349.77197,242.83692h-4.27214c-0.63455,0 -0.95182,-0.31727 -0.95182,-0.95183v-12.97135h-3.89583c-0.63455,0 -0.95182,-0.31727 -0.95182,-0.95183v-3.20963c0,-0.63455 0.31727,-0.95183 0.95182,-0.95183h13.96745c0.63455,0 0.95182,0.31727 0.95182,0.95183v3.20963c0,0.63455 -0.31727,0.95183 -0.95182,0.95183h-3.89584v12.97135c0,0.63455 -0.31727,0.95183 -0.95182,0.95183zM363.16973,242.83692h-4.09506c-0.63455,0 -0.95182,-0.31727 -0.95182,-0.95183v-17.13281c0,-0.63455 0.31727,-0.95183 0.95182,-0.95183h8.10156c1.59375,0 2.84071,0.22136 3.74089,0.66406c0.91493,0.42795 1.55685,1.03298 1.92578,1.81511c0.38368,0.76736 0.57552,1.66015 0.57552,2.67838v3.38672c0,1.01823 -0.19184,1.9184 -0.57552,2.70052c-0.36892,0.76736 -1.01085,1.37239 -1.92578,1.81511c-0.90017,0.42795 -2.14714,0.64192 -3.74089,0.64192h-3.05469v4.38281c0,0.63455 -0.31727,0.95183 -0.95182,0.95183zM364.07728,228.75879v3.98438h2.36849c0.51649,0 0.85591,-0.13281 1.01823,-0.39843c0.16233,-0.26562 0.24349,-0.56815 0.24349,-0.90756v-1.39453c0,-0.35416 -0.08116,-0.65668 -0.24349,-0.90756c-0.16233,-0.25087 -0.50174,-0.3763 -1.01823,-0.3763zM381.55133,242.83692h-5.33463c-0.63455,0 -0.95182,-0.31727 -0.95182,-0.95183v-5.35677c0,-0.63455 0.31727,-0.95182 0.95182,-0.95182h5.33463c0.63455,0 0.95182,0.31727 0.95182,0.95182v5.35677c0,0.63455 -0.31727,0.95183 -0.95182,0.95183z" fill="#000000" stroke="#000000" stroke-width="0" stroke-linecap="square"/><path d="M198.33141,132.27342l1.50467,0.84535l0.81402,-1.56439l1.50468,0.84536l0.81399,-1.56433l1.50467,0.84535l0.81402,-1.56438l1.50467,0.84535l0.81399,-1.56432l1.50467,0.84535l0.81399,-1.56432l1.50467,0.84535l0.81402,-1.56438l1.50467,0.84535l0.81399,-1.56433l1.50467,0.84536l0.81403,-1.56439l1.50467,0.84536l0.81399,-1.56433l1.50467,0.84536l-3.25603,6.25742l3.00941,1.69073l0.81402,-1.56438l3.01041,1.6913l0.81399,-1.56432l3.00934,1.69071l-1.62801,3.12871l-3.01041,-1.6913l-0.81399,1.56432l-3.00935,-1.6907l-0.81399,1.56432l-1.50473,-0.84538l-0.81402,1.56438l1.50474,0.84539l-0.81399,1.56433l1.50467,0.84535l-0.81402,1.56439l1.50467,0.84535l-0.81399,1.56433l-21.0655,-11.83496z" fill-opacity="0.24194" fill="#000000" stroke="none" stroke-width="1" stroke-linecap="butt"/><g stroke="none" stroke-width="1" stroke-linecap="butt"><path d="M216.14022,144.61599c-2.05641,0.25808 -3.6289,0.04464 -4.71749,-0.64034c-1.09031,-0.69868 -1.74299,-1.90486 -1.95806,-3.61853l-0.95748,-7.62926c-0.21507,-1.71367 0.11932,-3.04373 1.00316,-3.99017c0.88384,-0.94644 2.35396,-1.5487 4.41037,-1.80678c0,0 2.54277,-0.34151 5.44297,-0.46618c7.80999,-0.33573 13.11243,0.37521 31.07499,-1.87911c15.84887,-1.98905 32.43666,-6.30858 32.43666,-6.30858c0.5895,-0.07398 0.92124,0.18378 0.99523,0.77328c0,0 0.02344,0.40087 -0.33685,0.66978c-2.79073,2.08293 -15.73442,11.13602 -24.86433,14.58223c-12.00788,4.53253 -42.52917,10.31367 -42.52917,10.31367z" fill="url(#color-1)"/><path d="M217.03606,143.41857c-1.90716,0.23935 -3.36245,0.06585 -4.36589,-0.52049c-1.00493,-0.59822 -1.60062,-1.64016 -1.78707,-3.1258l-0.83008,-6.6141c-0.18645,-1.48565 0.13329,-2.64247 0.95923,-3.47047c0.82594,-0.828 2.19248,-1.36168 4.09964,-1.60103c0,0 2.35838,-0.31539 5.0463,-0.44526c7.23833,-0.34973 12.14565,0.22764 28.80451,-1.86306c14.69858,-1.84469 30.09917,-5.71747 30.09917,-5.71747c0.54672,-0.06862 0.85214,0.15262 0.91628,0.66367c0,0 0.01872,0.34773 -0.31709,0.5838c-2.60114,1.82858 -14.66089,9.78227 -23.14536,12.84138c-11.15897,4.02341 -39.47964,9.26881 -39.47964,9.26881z" fill="url(#color-2)"/><path d="M217.42304,142.62409c-1.7579,0.22062 -3.09696,0.07945 -4.01717,-0.42352c-0.9215,-0.51329 -1.4632,-1.41492 -1.62509,-2.70489l-0.72074,-5.74294c-0.16189,-1.28997 0.14021,-2.2975 0.90629,-3.02258c0.76608,-0.72508 2.02808,-1.19794 3.78598,-1.41855c0,0 2.17394,-0.28969 4.65014,-0.42031c6.66818,-0.35177 11.18357,0.11764 26.53873,-1.80945c13.54828,-1.70032 27.75645,-5.16793 27.75645,-5.16793c0.50393,-0.06325 0.78374,0.12701 0.83943,0.57076c0,0 0.01495,0.3021 -0.29586,0.50949c-2.40749,1.60643 -13.56601,8.59876 -21.39966,11.31352c-10.30301,3.57051 -36.41851,8.31642 -36.41851,8.31642z" fill="url(#color-3)"/></g><path d="M181.70009,132.64162l1.01563,-1.56318l1.88283,0.84755l1.01563,-1.56318l1.88283,0.84755l1.01563,-1.56318l1.88283,0.84756l1.01563,-1.56318l1.88283,0.84755l1.01564,-1.56318l1.88282,0.84755l1.01564,-1.56318l1.88283,0.84756l1.01564,-1.56318l1.88282,0.84755l1.01564,-1.56318l1.88283,0.84755l1.01563,-1.56318l1.88283,0.84755l1.01563,-1.56318l1.88283,0.84755l1.01563,-1.56318l1.88283,0.84756l0.00284,0.00079l-0.0026,-0.00117l1.01564,-1.56318l1.88283,0.84756l1.88283,0.84756l-4.06279,6.2531l1.88283,0.84755l1.01563,-1.56318l3.75076,1.71805l0.01624,-0.02233l1.01564,-1.56318l3.76566,1.69511l-1.01564,1.56318l1.88283,0.84756l-2.03128,3.12636l-1.88283,-0.84755l-1.01563,1.56318l-3.7521,-1.71865l-0.01491,0.02294l-1.01563,1.56318l-3.76566,-1.69511l-1.01563,1.56318l1.88283,0.84755l-1.01564,1.56318l1.88283,0.84755l-1.01564,1.56318l0.00018,0.00239l0.00116,-0.00179l1.88283,0.84755l-2.03127,3.12637l-32.00946,-14.40902z" fill="#000000" stroke="none" stroke-width="1" stroke-linecap="butt"/><path d="M193.69405,133.71143l0.81401,-1.56435l1.50468,0.84536l0.81401,-1.56435l1.50467,0.84535l0.81401,-1.56435l1.50468,0.84534l0.81401,-1.56435l1.50467,0.84535l0.81401,-1.56435l1.50467,0.84535l0.81401,-1.56435l1.50468,0.84535l0.81401,-1.56435l1.50467,0.84536l0.814,-1.56435l1.50467,0.84535l0.81401,-1.56435l1.50467,0.84535l0.81401,-1.56435l1.50467,0.84535l0.81401,-1.56435l1.50467,0.84535l0.00227,0.00079l-0.00208,-0.00116l0.81401,-1.56436l1.50467,0.84535l1.50467,0.84536l-3.25622,6.25779l1.50467,0.84535l0.81401,-1.56435l2.99741,1.71366l0.01302,-0.02235l0.81401,-1.56435l3.00936,1.6907l-0.81401,1.56435l1.50467,0.84535l-1.62802,3.12871l-1.50467,-0.84535l-0.81401,1.56435l-2.99849,-1.71427l-0.01194,0.02296l-0.81401,1.56435l-3.00935,-1.69071l-0.814,1.56435l1.50467,0.84536l-0.81401,1.56435l1.50467,0.84535l-0.814,1.56435l0.00014,0.00239l0.00093,-0.00179l1.50468,0.84535l-1.62802,3.12871l-25.58057,-14.37161z" fill-opacity="0.24194" fill="#000000" stroke="none" stroke-width="1" stroke-linecap="butt"/><path d="M187.49701,131.21036l1.88283,0.84755l1.01566,-1.56321l1.88282,0.84755l1.01562,-1.56315l1.88283,0.84756l1.01566,-1.56321l1.88282,0.84755l1.01562,-1.56315l1.88283,0.84755l1.01562,-1.56315l1.88283,0.84755l1.01566,-1.56321l1.88282,0.84755l1.01562,-1.56315l1.88283,0.84755l1.01566,-1.56321l1.88282,0.84755l1.01562,-1.56315l1.88283,0.84756l-4.06255,6.25273l3.76573,1.69514l1.01566,-1.56321l3.76698,1.6957l1.01561,-1.56315l3.76566,1.69511l-2.03128,3.12636l-3.76698,-1.6957l-1.01562,1.56315l-3.76566,-1.6951l-1.01562,1.56315l-1.8829,-0.84759l-1.01566,1.56321l1.8829,0.84758l-1.01561,1.56315l1.88282,0.84755l-1.01566,1.56321l1.88283,0.84755l-1.01562,1.56315l-26.35966,-11.86577z" fill="#ffffff" stroke="none" stroke-width="1" stroke-linecap="butt"/></g></g></svg>