<svg version="1.1" xmlns="http://www.w3.org/2000/svg" xmlns:xlink="http://www.w3.org/1999/xlink" width="144.95529" height="96.11779" viewBox="0,0,144.95529,96.11779"><defs><linearGradient x1="258.11779" y1="132.86529" x2="183.48689" y2="153.06947" gradientUnits="userSpaceOnUse" id="color-1"><stop offset="0" stop-color="#0080ff"/><stop offset="1" stop-color="#000000" stop-opacity="0"/></linearGradient><linearGradient x1="256.51831" y1="132.98608" x2="187.5038" y2="151.66978" gradientUnits="userSpaceOnUse" id="color-2"><stop offset="0" stop-color="#00b1ff"/><stop offset="1" stop-color="#000000" stop-opacity="0"/></linearGradient><linearGradient x1="255.50768" y1="132.96296" x2="192.04624" y2="150.14332" gradientUnits="userSpaceOnUse" id="color-3"><stop offset="0" stop-color="#00e4ff"/><stop offset="1" stop-color="#000000" stop-opacity="0"/></linearGradient></defs><g transform="translate(-167.52235,-124.71821)"><g data-paper-data="{&quot;isPaintingLayer&quot;:true}" fill-rule="nonzero" stroke-linejoin="miter" stroke-miterlimit="10" stroke-dasharray="" stroke-dashoffset="0" style="mix-blend-mode: normal"><g stroke="none" stroke-width="1" stroke-linecap="butt"><path d="M251.87799,128.50906c2.07232,-0.03026 3.61178,0.3549 4.6184,1.15549c1.00682,0.8144 1.52283,2.08507 1.54804,3.812l0.11226,7.68829c0.02522,1.72693 -0.45348,3.01212 -1.43609,3.85557c-0.98261,0.84345 -2.51006,1.2803 -4.58238,1.31056c0,0 -2.56491,0.05967 -5.46122,-0.13551c-7.79951,-0.5256 -12.99154,-1.81562 -31.09308,-1.55131c-15.97149,0.23321 -32.93383,2.70145 -32.93383,2.70145c-0.59406,0.00867 -0.89543,-0.28402 -0.90411,-0.87809c0,0 0.02081,-0.40102 0.4085,-0.62865c3.00296,-1.76324 16.86413,-9.33724 26.31778,-11.75801c12.43367,-3.18385 43.40573,-5.5718 43.40573,-5.5718z" fill="url(#color-1)"/><path d="M250.85584,129.60065c1.92192,-0.02806 3.34928,0.3045 4.28212,0.99769c0.93301,0.70516 1.41044,1.80631 1.43231,3.30344l0.09733,6.66527c0.02186,1.49714 -0.42322,2.61176 -1.33524,3.34386c-0.91203,0.7321 -2.32899,1.11219 -4.2509,1.14025c0,0 -2.37876,0.054 -5.06465,-0.11266c-7.23286,-0.44879 -12.04687,-1.56258 -28.83462,-1.31746c-14.8123,0.21629 -30.5455,2.37111 -30.5455,2.37111c-0.55095,0.00805 -0.83017,-0.24545 -0.8377,-0.76045c0,0 0.01965,-0.34768 0.3794,-0.54537c2.78654,-1.53129 15.64817,-8.10982 24.41771,-10.21686c11.5339,-2.77122 40.25975,-4.86881 40.25975,-4.86881z" fill="url(#color-2)"/><path d="M250.3838,130.34773c1.7715,-0.02587 3.0869,0.26177 3.94618,0.86294c0.85943,0.61156 1.29864,1.56732 1.31762,2.86727l0.0845,5.78737c0.01898,1.29995 -0.39214,2.26813 -1.23335,2.90452c-0.84121,0.63639 -2.14757,0.96753 -3.91907,0.99339c0,0 -2.19261,0.04874 -4.66815,-0.09387c-6.6664,-0.38403 -11.10273,-1.34739 -26.57669,-1.12145c-13.6531,0.19935 -28.15654,2.08266 -28.15654,2.08266c-0.50783,0.00742 -0.76501,-0.21247 -0.77154,-0.65965c0,0 0.01838,-0.30191 0.35012,-0.47384c2.56962,-1.33179 14.42972,-7.05396 22.51451,-8.89034c10.6333,-2.41525 37.11242,-4.259 37.11242,-4.259z" fill="url(#color-3)"/></g><g stroke="none" stroke-width="1" stroke-linecap="butt"><path d="M312.47764,207.98138c0,7.0988 -6.13903,12.85462 -13.70689,12.85462h-117.54311c-7.56945,0 -13.70529,-5.75732 -13.70529,-12.85462v-55.96426c0,-7.0988 6.13584,-12.85312 13.70529,-12.85312h117.54152c7.57264,0 13.70689,5.75433 13.70689,12.85312v55.96426z" fill="#0080ff"/><path d="M307.03789,152.01712v55.96277c0,4.27541 -3.70667,7.75311 -8.26873,7.75311h-117.54152c-4.55728,0 -8.26714,-3.4777 -8.26714,-7.75311v-55.96426c0,-4.27541 3.70986,-7.75311 8.26714,-7.75311h117.54152c4.56206,0 8.26873,3.47919 8.26873,7.7546z" fill="#00b1ff"/><path d="M301.43553,155.86535v48.27059c0,3.68774 -3.39687,6.68742 -7.57762,6.68742h-107.71728c-4.17637,0 -7.57616,-2.99967 -7.57616,-6.68742v-48.27187c0,-3.68774 3.39979,-6.68742 7.57616,-6.68742h107.71728c4.18075,0 7.57762,3.00095 7.57762,6.68871z" fill="#00e4ff"/></g><g fill="#000000" stroke-linecap="square"><path d="M192.61434,193.6542h-5.88133c-0.90959,0 -1.36438,-0.45479 -1.36438,-1.36438v-24.57963c0,-0.90959 0.45479,-1.36438 1.36438,-1.36438h5.88133c0.90959,0 1.36438,0.45479 1.36438,1.36438v8.238h6.33613v-8.238c0,-0.90959 0.45479,-1.36438 1.36438,-1.36438h5.88133c0.90959,0 1.36438,0.45479 1.36438,1.36438v24.57963c0,0.90959 -0.45479,1.36438 -1.36438,1.36438h-5.88133c-0.90959,0 -1.36438,-0.45479 -1.36438,-1.36438v-8.42405h-6.33613v8.42405c0,0.90959 -0.45479,1.36438 -1.36438,1.36438zM237.28534,186.49117c0,1.15766 -0.17227,2.21196 -0.51681,3.1629c-0.33765,0.95093 -0.93716,1.7675 -1.79851,2.4497c-0.85447,0.6822 -2.04658,1.2059 -3.57635,1.57111c-1.52977,0.36522 -3.48332,0.54782 -5.86066,0.54782c-2.37734,0 -4.33089,-0.18261 -5.86066,-0.54782c-1.52977,-0.36522 -2.72533,-0.88892 -3.58669,-1.57111c-0.85447,-0.6822 -1.46086,-1.49876 -1.81918,-2.4497c-0.35143,-0.95093 -0.52715,-2.00523 -0.52715,-3.1629v-12.941c0,-1.15766 0.17571,-2.21196 0.52715,-3.1629c0.35833,-0.95093 0.96472,-1.7675 1.81918,-2.4497c0.86136,-0.6822 2.05692,-1.21279 3.58669,-1.59179c1.52977,-0.379 3.48332,-0.56849 5.86066,-0.56849c2.37734,0 4.33089,0.1895 5.86066,0.56849c1.52977,0.379 2.72188,0.90959 3.57635,1.59179c0.86136,0.6822 1.46086,1.49876 1.79851,2.4497c0.34454,0.95093 0.51681,2.00523 0.51681,3.1629zM222.34943,185.11645c0,0.50993 0.1895,0.93716 0.56849,1.2817c0.379,0.33765 1.25069,0.50648 2.61507,0.50648c1.39195,0 2.27053,-0.16883 2.63574,-0.50648c0.36522,-0.34454 0.54782,-0.77177 0.54782,-1.2817v-10.19155c0,-0.50993 -0.18261,-0.92682 -0.54782,-1.25069c-0.36522,-0.33076 -1.2438,-0.49614 -2.63574,-0.49614c-1.36438,0 -2.23608,0.16538 -2.61507,0.49614c-0.379,0.32387 -0.56849,0.74076 -0.56849,1.25069zM249.12095,193.6542h-5.65394c-0.90959,0 -1.36438,-0.45479 -1.36438,-1.36438v-24.57963c0,-0.90959 0.45479,-1.36438 1.36438,-1.36438h6.10873c0.75799,0 1.34026,0.379 1.74683,1.13699l3.41096,6.18108c0.12404,0.2274 0.23085,0.39278 0.32043,0.49614c0.08958,0.10336 0.21017,0.15504 0.36177,0.15504h0.3411c0.1516,0 0.27219,-0.05168 0.36177,-0.15504c0.08958,-0.10336 0.19639,-0.26874 0.32043,-0.49614l3.37996,-6.18108c0.39967,-0.75799 0.97849,-1.13699 1.7365,-1.13699h6.15008c0.90959,0 1.36438,0.45479 1.36438,1.36438v24.57963c0,0.90959 -0.45479,1.36438 -1.36438,1.36438h-5.83999c-0.90959,0 -1.36438,-0.45479 -1.36438,-1.36438v-13.35445l-2.24297,4.1345c-0.42723,0.81312 -1.09564,1.21968 -2.00523,1.21968h-1.51943c-0.90959,0 -1.58144,-0.40656 -2.01558,-1.21968l-2.23264,-4.1345v13.35445c0,0.90959 -0.45479,1.36438 -1.36438,1.36438zM293.26699,193.6542h-17.60265c-0.90959,0 -1.36438,-0.45479 -1.36438,-1.36438v-24.57963c0,-0.90959 0.45479,-1.36438 1.36438,-1.36438h17.60265c0.90959,0 1.36438,0.45479 1.36438,1.36438v4.44459c0,0.90959 -0.45479,1.36438 -1.36438,1.36438h-10.47063v2.91482h7.39043c0.91649,0 1.37472,0.45479 1.37472,1.36438v4.06215c0,0.90959 -0.45824,1.36438 -1.37472,1.36438h-7.39043v3.26626h10.47063c0.90959,0 1.36438,0.45479 1.36438,1.36438v4.43426c0,0.90959 -0.45479,1.36438 -1.36438,1.36438z" stroke="#ffffff" stroke-width="3"/><path d="M192.61434,193.6542h-5.88133c-0.90959,0 -1.36438,-0.45479 -1.36438,-1.36438v-24.57963c0,-0.90959 0.45479,-1.36438 1.36438,-1.36438h5.88133c0.90959,0 1.36438,0.45479 1.36438,1.36438v8.238h6.33613v-8.238c0,-0.90959 0.45479,-1.36438 1.36438,-1.36438h5.88133c0.90959,0 1.36438,0.45479 1.36438,1.36438v24.57963c0,0.90959 -0.45479,1.36438 -1.36438,1.36438h-5.88133c-0.90959,0 -1.36438,-0.45479 -1.36438,-1.36438v-8.42405h-6.33613v8.42405c0,0.90959 -0.45479,1.36438 -1.36438,1.36438zM237.28534,186.49117c0,1.15766 -0.17227,2.21196 -0.51681,3.1629c-0.33765,0.95093 -0.93716,1.7675 -1.79851,2.4497c-0.85447,0.6822 -2.04658,1.2059 -3.57635,1.57111c-1.52977,0.36522 -3.48332,0.54782 -5.86066,0.54782c-2.37734,0 -4.33089,-0.18261 -5.86066,-0.54782c-1.52977,-0.36522 -2.72533,-0.88892 -3.58669,-1.57111c-0.85447,-0.6822 -1.46086,-1.49876 -1.81918,-2.4497c-0.35143,-0.95093 -0.52715,-2.00523 -0.52715,-3.1629v-12.941c0,-1.15766 0.17571,-2.21196 0.52715,-3.1629c0.35833,-0.95093 0.96472,-1.7675 1.81918,-2.4497c0.86136,-0.6822 2.05692,-1.21279 3.58669,-1.59179c1.52977,-0.379 3.48332,-0.56849 5.86066,-0.56849c2.37734,0 4.33089,0.1895 5.86066,0.56849c1.52977,0.379 2.72188,0.90959 3.57635,1.59179c0.86136,0.6822 1.46086,1.49876 1.79851,2.4497c0.34454,0.95093 0.51681,2.00523 0.51681,3.1629zM222.34944,185.11645c0,0.50993 0.1895,0.93716 0.56849,1.2817c0.379,0.33765 1.25069,0.50648 2.61507,0.50648c1.39195,0 2.27053,-0.16883 2.63574,-0.50648c0.36522,-0.34454 0.54782,-0.77177 0.54782,-1.2817v-10.19155c0,-0.50993 -0.18261,-0.92682 -0.54782,-1.25069c-0.36522,-0.33076 -1.2438,-0.49614 -2.63574,-0.49614c-1.36438,0 -2.23608,0.16538 -2.61507,0.49614c-0.379,0.32387 -0.56849,0.74076 -0.56849,1.25069zM249.12096,193.6542h-5.65394c-0.90959,0 -1.36438,-0.45479 -1.36438,-1.36438v-24.57963c0,-0.90959 0.45479,-1.36438 1.36438,-1.36438h6.10873c0.75799,0 1.34026,0.379 1.74683,1.13699l3.41096,6.18108c0.12404,0.2274 0.23085,0.39278 0.32043,0.49614c0.08958,0.10336 0.21017,0.15504 0.36177,0.15504h0.3411c0.1516,0 0.27219,-0.05168 0.36177,-0.15504c0.08958,-0.10336 0.19639,-0.26874 0.32043,-0.49614l3.37996,-6.18108c0.39967,-0.75799 0.97849,-1.13699 1.7365,-1.13699h6.15008c0.90959,0 1.36438,0.45479 1.36438,1.36438v24.57963c0,0.90959 -0.45479,1.36438 -1.36438,1.36438h-5.83999c-0.90959,0 -1.36438,-0.45479 -1.36438,-1.36438v-13.35445l-2.24297,4.1345c-0.42723,0.81312 -1.09564,1.21968 -2.00523,1.21968h-1.51943c-0.90959,0 -1.58144,-0.40656 -2.01558,-1.21968l-2.23264,-4.1345v13.35445c0,0.90959 -0.45479,1.36438 -1.36438,1.36438zM293.26699,193.6542h-17.60265c-0.90959,0 -1.36438,-0.45479 -1.36438,-1.36438v-24.57963c0,-0.90959 0.45479,-1.36438 1.36438,-1.36438h17.60265c0.90959,0 1.36438,0.45479 1.36438,1.36438v4.44459c0,0.90959 -0.45479,1.36438 -1.36438,1.36438h-10.47063v2.91482h7.39043c0.91649,0 1.37472,0.45479 1.37472,1.36438v4.06215c0,0.90959 -0.45824,1.36438 -1.37472,1.36438h-7.39043v3.26626h10.47063c0.90959,0 1.36438,0.45479 1.36438,1.36438v4.43426c0,0.90959 -0.45479,1.36438 -1.36438,1.36438z" stroke="none" stroke-width="1"/></g><path d="M268.22069,142.73611l-1.40253,-1.00577l-0.9812,1.46533l-1.40253,-1.00578l-0.98116,1.46527l-1.40253,-1.00577l-0.9812,1.46532l-1.40253,-1.00577l-0.98116,1.46526l-1.40253,-1.00577l-0.98116,1.46526l-1.40253,-1.00577l-0.9812,1.46532l-1.40253,-1.00577l-0.98116,1.46527l-1.40252,-1.00578l-0.98121,1.46533l-1.40252,-1.00578l-0.98116,1.46527l-1.40252,-1.00578l3.92473,-5.86119l-2.80512,-2.01157l-0.9812,1.46532l-2.80605,-2.01225l-0.98116,1.46526l-2.80505,-2.01155l1.96236,-2.93059l2.80605,2.01225l0.98116,-1.46526l2.80506,2.01154l0.98116,-1.46526l1.40258,1.0058l0.9812,-1.46532l-1.40259,-1.00582l0.98116,-1.46527l-1.40253,-1.00577l0.9812,-1.46533l-1.40253,-1.00577l0.98116,-1.46527l19.63547,14.08083z" fill-opacity="0.24194" fill="#000000" stroke="none" stroke-width="1" stroke-linecap="butt"/><path d="M272.98811,141.81705l-0.98119,1.46529l-1.40253,-1.00578l-0.98119,1.46529l-1.40253,-1.00577l-0.98119,1.46529l-1.40254,-1.00576l-0.98119,1.46529l-1.40253,-1.00577l-0.98119,1.46529l-1.40253,-1.00577l-0.98119,1.46529l-1.40254,-1.00577l-0.98119,1.46529l-1.40252,-1.00578l-0.98118,1.46529l-1.40253,-1.00577l-0.98119,1.46529l-1.40253,-1.00577l-0.98119,1.46529l-1.40253,-1.00577l-0.98119,1.46529l-1.40253,-1.00577l-0.00217,-0.00103l0.00194,0.00138l-0.98119,1.4653l-1.40253,-1.00577l-1.40252,-1.00578l3.92496,-5.86153l-1.40253,-1.00577l-0.98119,1.46529l-2.79067,-2.03305l-0.0154,0.02078l-0.98119,1.46529l-2.80507,-2.01154l0.98119,-1.46529l-1.40253,-1.00577l1.96237,-2.93059l1.40253,1.00577l0.98119,-1.46529l2.79167,2.03377l0.01439,-0.02151l0.98119,-1.46529l2.80506,2.01155l0.98118,-1.46529l-1.40252,-1.00578l0.98119,-1.46529l-1.40253,-1.00577l0.98118,-1.46529l0.00012,-0.00239l-0.00112,0.00168l-1.40254,-1.00577l1.96237,-2.93059l23.84404,17.09885z" fill-opacity="0.24194" fill="#000000" stroke="none" stroke-width="1" stroke-linecap="butt"/><path d="M284.79155,144.2l-1.18145,1.44195l-1.77815,-1.04956l-1.18145,1.44195l-1.77815,-1.04956l-1.18145,1.44195l-1.77815,-1.04957l-1.18145,1.44195l-1.77815,-1.04956l-1.18146,1.44194l-1.77814,-1.04956l-1.18146,1.44194l-1.77815,-1.04957l-1.18146,1.44194l-1.77814,-1.04956l-1.18146,1.44194l-1.77815,-1.04956l-1.18145,1.44195l-1.77815,-1.04956l-1.18145,1.44195l-1.77815,-1.04956l-1.18145,1.44195l-1.77815,-1.04957l-0.00274,-0.0011l0.00246,0.00145l-1.18146,1.44194l-1.77815,-1.04957l-1.77815,-1.04957l4.72612,-5.76813l-1.77815,-1.04956l-1.18145,1.44195l-3.53896,-2.1203l-0.0186,0.02041l-1.18146,1.44194l-3.55629,-2.09913l1.18146,-1.44194l-1.77815,-1.04957l2.36292,-2.88389l1.77815,1.04956l1.18145,-1.44195l3.54023,2.12104l0.01734,-0.02116l1.18145,-1.44195l3.55629,2.09913l1.18145,-1.44195l-1.77815,-1.04956l1.18146,-1.44194l-1.77815,-1.04956l1.18146,-1.44194l0.00008,-0.0024l-0.00135,0.00165l-1.77815,-1.04956l2.36292,-2.8839l30.22978,17.84337z" fill="#000000" stroke="none" stroke-width="1" stroke-linecap="butt"/><path d="M278.87235,144.98476l-1.77815,-1.04956l-1.18149,1.44197l-1.77814,-1.04956l-1.18144,1.44192l-1.77815,-1.04957l-1.18149,1.44197l-1.77814,-1.04956l-1.18144,1.44192l-1.77815,-1.04956l-1.18144,1.44192l-1.77815,-1.04956l-1.18149,1.44197l-1.77814,-1.04956l-1.18144,1.44192l-1.77815,-1.04956l-1.18149,1.44197l-1.77814,-1.04956l-1.18144,1.44192l-1.77815,-1.04957l4.72584,-5.76779l-3.55636,-2.09917l-1.18149,1.44197l-3.55754,-2.09987l-1.18143,1.44192l-3.55629,-2.09913l2.36292,-2.88389l3.55754,2.09987l1.18144,-1.44192l3.5563,2.09912l1.18144,-1.44192l1.77821,1.04961l1.18149,-1.44197l-1.77821,-1.0496l1.18143,-1.44192l-1.77814,-1.04956l1.18149,-1.44197l-1.77815,-1.04956l1.18144,-1.44192l24.8941,14.69394z" fill="#ffffff" stroke="none" stroke-width="1" stroke-linecap="butt"/></g></g></svg>